{
  "accessors": [
    {
      "bufferView": 2,
      "componentType": 5126,
      "count": 602,
      "max": [
        9.483000755310059,
        24.016834259033203,
        6.090412139892578
      ],
      "min": [
        -8.29310417175293,
        0.0,
        -6.090412139892578
      ],
      "type": "VEC3"
    },
    {
      "bufferView": 2,
      "byteOffset": 7224,
      "componentType": 5126,
      "count": 602,
      "max": [
        0.9990780353546143,
        1.0,
        0.9997818470001221
      ],
      "min": [
        -0.9998506307601929,
        -1.0,
        -0.9997818470001221
      ],
      "type": "VEC3"
    },
    {
      "bufferView": 1,
      "componentType": 5126,
      "count": 602,
      "max": [
        0.9984931945800781,
        0.9852861762046814
      ],
      "min": [
        0.053066279739141464,
        0.05733621120452881
      ],
      "type": "VEC2"
    },
    {
      "bufferView": 0,
      "componentType": 5125,
      "count": 1554,
      "type": "SCALAR"
    }
  ],
  "asset": {
    "extras": {
      "author": "jkrmn (https://sketchfab.com/jkrmn)",
      "license": "CC-BY-4.0 (http://creativecommons.org/licenses/by/4.0/)",
      "source": "https://sketchfab.com/3d-models/cofee-maker-71ed605a15764495b7a9b61aac8bc791",
      "title": "Cofee Maker"
    },
    "generator": "Sketchfab-13.17.0",
    "version": "2.0"
  },
  "bufferViews": [
    {
      "buffer": 0,
      "byteLength": 6216,
      "name": "floatBufferViews",
      "target": 34963
    },
    {
      "buffer": 0,
      "byteLength": 4816,
      "byteOffset": 6216,
      "byteStride": 8,
      "name": "floatBufferViews",
      "target": 34962
    },
    {
      "buffer": 0,
      "byteLength": 14448,
      "byteOffset": 11032,
      "byteStride": 12,
      "name": "floatBufferViews",
      "target": 34962
    }
  ],
  "buffers": [
    {
      "byteLength": 25480,
      "uri": "scene.bin"
    }
  ],
  "materials": [
    {
      "doubleSided": true,
      "name": "lambert2",
      "pbrMetallicRoughness": {
        "baseColorFactor": [
          0.5,
          0.5,
          0.5,
          1.0
        ],
        "metallicFactor": 0.0,
        "roughnessFactor": 0.6
      }
    }
  ],
  "meshes": [
    {
      "name": "Cafetera_HighPoly_lambert2_0",
      "primitives": [
        {
          "attributes": {
            "NORMAL": 1,
            "POSITION": 0,
            "TEXCOORD_0": 2
          },
          "indices": 3,
          "material": 0,
          "mode": 4
        }
      ]
    }
  ],
  "nodes": [
    {
      "children": [
        1
      ],
      "matrix": [
        1.0,
        0.0,
        0.0,
        0.0,
        0.0,
        2.220446049250313e-16,
        -1.0,
        0.0,
        0.0,
        1.0,
        2.220446049250313e-16,
        0.0,
        0.0,
        0.0,
        0.0,
        1.0
      ],
      "name": "Sketchfab_model"
    },
    {
      "children": [
        2
      ],
      "matrix": [
        0.009999999776482582,
        0.0,
        0.0,
        0.0,
        0.0,
        0.0,
        0.009999999776482582,
        0.0,
        0.0,
        -0.009999999776482582,
        0.0,
        0.0,
        0.0,
        0.0,
        0.0,
        1.0
      ],
      "name": "df76ee0948d94f01b851361a46ea6332.fbx"
    },
    {
      "children": [
        3
      ],
      "name": "RootNode"
    },
    {
      "children": [
        4
      ],
      "name": "Cafetera_HighPoly"
    },
    {
      "mesh": 0,
      "name": "Cafetera_HighPoly_lambert2_0"
    }
  ],
  "scene": 0,
  "scenes": [
    {
      "name": "Sketchfab_Scene",
      "nodes": [
        0
      ]
    }
  ]
}
